<svg xmlns="http://www.w3.org/2000/svg" width="80" height="80" viewBox="0 0 80 80" fill="none" stroke="#1A1715" stroke-width="2.4" stroke-linecap="round" stroke-linejoin="round">
  
  <path d="M12 38 Q12 18 36 16 Q60 14 64 32 Q66 44 56 46 Q50 46 50 52 Q50 62 40 62 Q12 60 12 38 Z" fill="#F2E4C4"></path>
  
  <ellipse cx="22" cy="38" rx="4.5" ry="6" fill="#FBF3DD"></ellipse>
  <ellipse cx="22" cy="38" rx="4.5" ry="6"></ellipse>
  
  <circle cx="32" cy="26" r="3.5" fill="#D84A2A"></circle>
  <circle cx="32" cy="26" r="3.5"></circle>
  <circle cx="46" cy="24" r="3.5" fill="#F4B944"></circle>
  <circle cx="46" cy="24" r="3.5"></circle>
  <circle cx="54" cy="36" r="3.5" fill="#2A4A35"></circle>
  <circle cx="54" cy="36" r="3.5"></circle>
  
  <g transform="rotate(35 60 56)">
    <rect x="50" y="54" width="20" height="5" rx="1" fill="#F4B944"></rect>
    <rect x="50" y="54" width="20" height="5" rx="1"></rect>
    <rect x="46" y="53" width="6" height="7" fill="#1A1715"></rect>
    <path d="M46 56 L40 53 L40 60 Z" fill="#D84A2A"></path>
    <path d="M46 56 L40 53 L40 60 Z"></path>
  </g>
</svg>