<svg xmlns="http://www.w3.org/2000/svg" width="80" height="80" viewBox="0 0 80 80" fill="none" stroke="#1A1715" stroke-width="2.4" stroke-linecap="round" stroke-linejoin="round">
  
  <g transform="rotate(-3 40 40)">
    <rect x="10" y="20" width="60" height="40" rx="3" fill="#F2E4C4"></rect>
    
    <rect x="10" y="20" width="60" height="8" fill="#D84A2A"></rect>
    <rect x="10" y="20" width="60" height="40" rx="3"></rect>
    <line x1="10" y1="28" x2="70" y2="28"></line>
    <text x="40" y="26.5" font-family="Fredoka,sans-serif" font-size="6" fill="#F2E4C4" stroke="none" text-anchor="middle" font-weight="700" letter-spacing="2">BINGO</text>
    
    <line x1="10" y1="38" x2="70" y2="38" stroke-width="1.4"></line>
    <line x1="10" y1="48" x2="70" y2="48" stroke-width="1.4"></line>
    <line x1="22" y1="28" x2="22" y2="60" stroke-width="1.4"></line>
    <line x1="34" y1="28" x2="34" y2="60" stroke-width="1.4"></line>
    <line x1="46" y1="28" x2="46" y2="60" stroke-width="1.4"></line>
    <line x1="58" y1="28" x2="58" y2="60" stroke-width="1.4"></line>
    
    <circle cx="16" cy="33" r="1.6" fill="#1A1715" stroke="none"></circle>
    <circle cx="40" cy="33" r="1.6" fill="#1A1715" stroke="none"></circle>
    <circle cx="64" cy="33" r="1.6" fill="#1A1715" stroke="none"></circle>
    <circle cx="28" cy="43" r="3.5" fill="#F4B944"></circle>
    <circle cx="52" cy="43" r="1.6" fill="#1A1715" stroke="none"></circle>
    <circle cx="16" cy="53" r="1.6" fill="#1A1715" stroke="none"></circle>
    <circle cx="40" cy="53" r="3.5" fill="#F4B944"></circle>
    <circle cx="64" cy="53" r="1.6" fill="#1A1715" stroke="none"></circle>
  </g>
</svg>