<svg xmlns="http://www.w3.org/2000/svg" width="80" height="80" viewBox="0 0 80 80" fill="none" stroke="#1A1715" stroke-width="2.4" stroke-linecap="round" stroke-linejoin="round">
  
  <path d="M10 42 Q12 26 28 26 Q44 24 52 32 Q56 38 50 42 Q42 42 38 40 Q30 48 20 48 Q12 48 10 42 Z" fill="#F2E4C4"></path>
  
  <circle cx="22" cy="38" r="6" fill="#F4B944"></circle>
  <circle cx="22" cy="38" r="6"></circle>
  
  <path d="M30 30 Q34 28 38 30 Q42 32 46 30" stroke-width="2.4" stroke="#D84A2A"></path>
  <path d="M30 30 Q34 28 38 30 Q42 32 46 30" stroke-width="2.4"></path>
  
  <path d="M44 50 L66 50 L64 68 Q64 70 62 70 L48 70 Q46 70 46 68 Z" fill="#F2E4C4"></path>
  <path d="M66 56 Q72 56 72 62 Q72 66 66 66"></path>
  
  <ellipse cx="55" cy="52" rx="9" ry="1.5" fill="#1A1715" stroke="none"></ellipse>
  
  <path d="M52 44 Q50 46 52 48" stroke-width="1.4"></path>
  <path d="M58 42 Q56 44 58 46" stroke-width="1.4"></path>
</svg>