<svg xmlns="http://www.w3.org/2000/svg" width="80" height="80" viewBox="0 0 80 80" fill="none" stroke="#1A1715" stroke-width="2.4" stroke-linecap="round" stroke-linejoin="round">
  
  <path d="M14 56 Q14 70 28 70 L52 70 Q66 70 66 56 L66 50 Q60 50 56 54 Q52 50 40 50 Q28 50 24 54 Q20 50 14 50 Z" fill="#F2E4C4"></path>
  
  <path d="M22 60 Q30 62 38 60" stroke-width="1.2"></path>
  <path d="M42 60 Q50 62 58 60" stroke-width="1.2"></path>
  
  <path d="M40 42 Q30 28 22 34 Q16 42 40 56 Q64 42 58 34 Q50 28 40 42 Z" fill="#D84A2A"></path>
  <path d="M40 42 Q30 28 22 34 Q16 42 40 56 Q64 42 58 34 Q50 28 40 42 Z"></path>
  
  <path d="M30 36 Q33 33 36 36" stroke="#F2E4C4" stroke-width="1.4" fill="none"></path>
</svg>