<svg xmlns="http://www.w3.org/2000/svg" width="80" height="80" viewBox="0 0 80 80" fill="none" stroke="#1A1715" stroke-width="2.4" stroke-linecap="round" stroke-linejoin="round">
  
  
  <path d="M22 22 Q22 14 32 14 L46 14 Q56 14 56 22 L54 44 Q52 56 38 56 Q24 56 22 44 Z" fill="#F4B944"></path>
  <path d="M22 22 Q22 14 32 14 L46 14 Q56 14 56 22 L54 44 Q52 56 38 56 Q24 56 22 44 Z"></path>
  
  <path d="M30 30 Q34 26 38 30" stroke-width="1.8"></path>
  <path d="M44 30 Q48 26 52 30" stroke-width="1.8"></path>
  
  <path d="M28 40 Q38 52 50 40"></path>
  
  <path d="M30 36 Q30 30 38 30 L52 30 Q62 30 62 38 L60 60 Q58 70 46 70 Q32 70 30 60 Z" fill="#F2E4C4"></path>
  
  <path d="M37 42 Q40 39 43 42" stroke-width="1.8"></path>
  <path d="M51 42 Q54 39 57 42" stroke-width="1.8"></path>
  
  <path d="M36 54 Q46 64 58 54"></path>
  
  <circle cx="68" cy="20" r="3" fill="#D84A2A"></circle>
</svg>