<svg xmlns="http://www.w3.org/2000/svg" width="80" height="80" viewBox="0 0 80 80" fill="none" stroke="#1A1715" stroke-width="2.4" stroke-linecap="round" stroke-linejoin="round">
  
  <rect x="6" y="20" width="58" height="48" rx="4" fill="#F2E4C4"></rect>
  <circle cx="30" cy="44" r="18" fill="#1A1715"></circle>
  <circle cx="30" cy="44" r="18"></circle>
  
  <circle cx="30" cy="44" r="13" stroke="#F2E4C4" stroke-width="1"></circle>
  
  <circle cx="30" cy="44" r="6" fill="#D84A2A"></circle>
  <circle cx="30" cy="44" r="6"></circle>
  <circle cx="30" cy="44" r="1.5" fill="#1A1715" stroke="none"></circle>
  
  <circle cx="58" cy="26" r="3" fill="#F4B944"></circle>
  <circle cx="58" cy="26" r="3"></circle>
  <line x1="58" y1="26" x2="42" y2="40" stroke-width="2.6"></line>
  <rect x="38" y="38" width="6" height="5" fill="#1A1715"></rect>
  
  <line x1="48" y1="60" x2="60" y2="60"></line>
  <rect x="52" y="58" width="3" height="4" fill="#1A1715"></rect>
  
  <path d="M68 30 Q72 40 68 50" stroke-width="1.4"></path>
  <path d="M72 26 Q78 40 72 54" stroke-width="1.4"></path>
  <path d="M8 9.5 L8 14.5 M5.5 12 L10.5 12" stroke-width="1.6"></path>
</svg>