<svg xmlns="http://www.w3.org/2000/svg" width="80" height="80" viewBox="0 0 80 80" fill="none" stroke="#1A1715" stroke-width="2.4" stroke-linecap="round" stroke-linejoin="round">
  
  <path d="M16 12 L16 26 Q16 30 20 30 L22 30 L22 68 L26 70 L30 68 L30 30 L32 30 Q36 30 36 26 L36 12" fill="#F2E4C4"></path>
  <line x1="20" y1="12" x2="20" y2="24"></line>
  <line x1="26" y1="12" x2="26" y2="24"></line>
  <line x1="32" y1="12" x2="32" y2="24"></line>
  
  <path d="M46 18 L66 18 L63 70 L49 70 Z" fill="#F2E4C4"></path>
  
  <path d="M46 26 Q50 22 54 26 Q58 22 62 26 Q64 24 66 26 L66 18 L46 18 Z" fill="#F4B944"></path>
  <line x1="46" y1="26" x2="66" y2="26"></line>
  
  <circle cx="54" cy="40" r="1.6" fill="#1A1715" stroke="none"></circle>
  <circle cx="58" cy="50" r="1.6" fill="#1A1715" stroke="none"></circle>
  <circle cx="52" cy="58" r="1.6" fill="#1A1715" stroke="none"></circle>
</svg>