<svg xmlns="http://www.w3.org/2000/svg" width="80" height="80" viewBox="0 0 80 80" fill="none" stroke="#1A1715" stroke-width="2.4" stroke-linecap="round" stroke-linejoin="round">
  
  <g transform="rotate(-12 26 30)">
    <rect x="12" y="14" width="26" height="36" rx="3" fill="#F2E4C4"></rect>
    
    <path d="M25 36 Q19 28 22 24 Q26 22 25 26 Q24 22 28 24 Q31 28 25 36 Z" fill="#D84A2A"></path>
  </g>
  
  <g transform="rotate(8 52 36)">
    <rect x="40" y="18" width="26" height="36" rx="3" fill="#F2E4C4"></rect>
    
    <path d="M53 28 Q47 36 47 41 Q47 45 51 45 Q52 45 53 44 Q52 47 50 48 L56 48 Q54 47 53 44 Q54 45 55 45 Q59 45 59 41 Q59 36 53 28 Z" fill="#1A1715" stroke="none"></path>
    <text x="44" y="28" font-family="Fredoka,sans-serif" font-size="8" fill="#1A1715" stroke="none" font-weight="700">A</text>
  </g>
  
  <g transform="rotate(-6 24 60)">
    <rect x="12" y="50" width="22" height="22" rx="3" fill="#F4B944"></rect>
    <rect x="12" y="50" width="22" height="22" rx="3"></rect>
    <circle cx="18" cy="56" r="1.8" fill="#1A1715" stroke="none"></circle>
    <circle cx="28" cy="56" r="1.8" fill="#1A1715" stroke="none"></circle>
    <circle cx="23" cy="61" r="1.8" fill="#1A1715" stroke="none"></circle>
    <circle cx="18" cy="66" r="1.8" fill="#1A1715" stroke="none"></circle>
    <circle cx="28" cy="66" r="1.8" fill="#1A1715" stroke="none"></circle>
  </g>
  <path d="M66 63.5 L66 68.5 M63.5 66 L68.5 66" stroke-width="1.6"></path>
</svg>