<svg xmlns="http://www.w3.org/2000/svg" width="80" height="80" viewBox="0 0 80 80" fill="none" stroke="#1A1715" stroke-width="2.4" stroke-linecap="round" stroke-linejoin="round">
  
  <g transform="rotate(-22 30 42)">
    
    <ellipse cx="22" cy="22" rx="14" ry="15" fill="#F2E4C4"></ellipse>
    <ellipse cx="22" cy="22" rx="14" ry="15"></ellipse>
    
    <path d="M10 18 Q22 22 34 18" stroke-width="1.4" fill="none"></path>
    <path d="M9 24 Q22 28 35 24" stroke-width="1.4" fill="none"></path>
    <path d="M11 30 Q22 34 33 30" stroke-width="1.4" fill="none"></path>
    
    <path d="M10 36 Q22 40 34 36" stroke-width="2.6" fill="none"></path>
    
    <path d="M14 38 L18 58 Q19 62 23 62 L25 62 Q29 62 30 58 L30 36" fill="#F2E4C4"></path>
    <path d="M14 38 L18 58 Q19 62 23 62 L25 62 Q29 62 30 58 L30 36"></path>
    
    <circle cx="22" cy="46" r="2.2" fill="#D84A2A"></circle>
  </g>
  
  <path d="M58 24 L58 44 Q54 44 54 48 Q54 52 58 52 Q62 52 62 48 L62 30 L70 28 L70 44 Q66 44 66 48 Q66 52 70 52 Q74 52 74 48 L74 24 Z" fill="#F4B944"></path>
  <path d="M58 24 L58 44 Q54 44 54 48 Q54 52 58 52 Q62 52 62 48 L62 30 L70 28 L70 44 Q66 44 66 48 Q66 52 70 52 Q74 52 74 48 L74 24 Z"></path>
  <path d="M70 63.5 L70 68.5 M67.5 66 L72.5 66" stroke-width="1.6"></path>
</svg>