<svg xmlns="http://www.w3.org/2000/svg" width="80" height="80" viewBox="0 0 80 80" fill="none" stroke="#1A1715" stroke-width="2.4" stroke-linecap="round" stroke-linejoin="round">
  
  <g transform="rotate(-4 40 50)">
    <rect x="10" y="36" width="60" height="34" rx="3" fill="#F2E4C4"></rect>
    
    <path d="M10 28 L70 18 L70 26 L10 36 Z" fill="#1A1715"></path>
    
    <path d="M22 33 L28 23" stroke="#F2E4C4" stroke-width="2.4"></path>
    <path d="M38 31 L44 21" stroke="#F2E4C4" stroke-width="2.4"></path>
    <path d="M54 28 L60 19" stroke="#F2E4C4" stroke-width="2.4"></path>
    
    <path d="M10 28 L70 18 L70 26 L10 36 Z"></path>
    <line x1="22" y1="33" x2="28" y2="23" stroke="#1A1715" stroke-width="1.6"></line>
    <line x1="38" y1="31" x2="44" y2="21" stroke="#1A1715" stroke-width="1.6"></line>
    <line x1="54" y1="28" x2="60" y2="19" stroke="#1A1715" stroke-width="1.6"></line>
    
    <line x1="20" y1="50" x2="42" y2="50" stroke-width="1.6"></line>
    <line x1="20" y1="58" x2="36" y2="58" stroke-width="1.6"></line>
    
    <circle cx="56" cy="56" r="7" fill="#D84A2A"></circle>
    <text x="56" y="59" font-family="Fredoka,sans-serif" font-size="9" fill="#F2E4C4" stroke="none" text-anchor="middle" font-weight="700">★</text>
  </g>
</svg>